M48
;DRILL file {KiCad (2018-02-08 revision b04b1dc)-master} date Thursday, February 15, 2018 at 05:12:49 PM
;FORMAT={-:-/ absolute / inch / decimal}
FMAT,2
INCH,TZ
T1C0.0433
T2C0.0866
T3C0.1693
%
G90
G05
M72
T1
X3.3846Y-2.874
X3.6209Y-2.8764
X5.5118Y-2.874
X5.748Y-2.8764
X4.0945Y-2.874
X4.3307Y-2.8764
X3.0315Y-2.874
X3.2677Y-2.8764
X3.7402Y-2.874
X3.9764Y-2.8764
X4.8031Y-2.874
X5.0394Y-2.8764
X4.4488Y-2.874
X4.685Y-2.8764
X5.1575Y-2.874
X5.3937Y-2.8764
T2
X2.6378Y-2.7953
X6.1417Y-3.1496
X6.1417Y-2.7953
X2.6378Y-3.1496
T3
X6.4173Y-2.9724
X2.3622Y-2.9724
T0
M30
