G04 #@! TF.GenerationSoftware,KiCad,Pcbnew,(2018-02-08 revision b04b1dc)-master*
G04 #@! TF.CreationDate,2018-02-10T20:35:02-08:00*
G04 #@! TF.ProjectId,CAN Bus Hub,43414E20427573204875622E6B696361,1*
G04 #@! TF.SameCoordinates,Original*
G04 #@! TF.FileFunction,Copper,L1,Top,Signal*
G04 #@! TF.FilePolarity,Positive*
%FSLAX46Y46*%
G04 Gerber Fmt 4.6, Leading zero omitted, Abs format (unit mm)*
G04 Created by KiCad (PCBNEW (2018-02-08 revision b04b1dc)-master) date Saturday, February 10, 2018 at 08:35:02 PM*
%MOMM*%
%LPD*%
G01*
G04 APERTURE LIST*
%ADD10C,1.600000*%
%ADD11O,1.600000X1.600000*%
%ADD12C,1.500000*%
G04 APERTURE END LIST*
D10*
X143000000Y-77000000D03*
X143000000Y-74000000D03*
X151000000Y-71000000D03*
D11*
X151000000Y-81160000D03*
D10*
X80000000Y-74000000D03*
X80000000Y-77000000D03*
X88970000Y-77000000D03*
X88970000Y-74000000D03*
X98000000Y-74000000D03*
X98000000Y-77000000D03*
X107000000Y-77000000D03*
X107000000Y-74000000D03*
X116000000Y-74000000D03*
X116000000Y-77000000D03*
X125000000Y-77000000D03*
X125000000Y-74000000D03*
X134000000Y-74000000D03*
X134000000Y-77000000D03*
D11*
X72000000Y-80660000D03*
D10*
X72000000Y-70500000D03*
D12*
X143000000Y-74000000D02*
X143000000Y-73000000D01*
X145000000Y-71000000D02*
X149868630Y-71000000D01*
X149868630Y-71000000D02*
X151000000Y-71000000D01*
X143000000Y-73000000D02*
X145000000Y-71000000D01*
X80000000Y-74000000D02*
X80000000Y-72868630D01*
X73131370Y-70500000D02*
X72000000Y-70500000D01*
X80000000Y-72868630D02*
X77631370Y-70500000D01*
X77631370Y-70500000D02*
X73131370Y-70500000D01*
X134000000Y-74000000D02*
X135000000Y-75000000D01*
X135000000Y-75000000D02*
X142000000Y-75000000D01*
X142000000Y-75000000D02*
X142200001Y-74799999D01*
X142200001Y-74799999D02*
X143000000Y-74000000D01*
X125000000Y-74000000D02*
X125860001Y-74860001D01*
X125860001Y-74860001D02*
X133139999Y-74860001D01*
X133139999Y-74860001D02*
X133200001Y-74799999D01*
X133200001Y-74799999D02*
X134000000Y-74000000D01*
X116000000Y-74000000D02*
X116860001Y-74860001D01*
X116860001Y-74860001D02*
X124139999Y-74860001D01*
X124139999Y-74860001D02*
X124200001Y-74799999D01*
X124200001Y-74799999D02*
X125000000Y-74000000D01*
X107000000Y-74000000D02*
X108000000Y-75000000D01*
X108000000Y-75000000D02*
X115000000Y-75000000D01*
X115000000Y-75000000D02*
X115200001Y-74799999D01*
X115200001Y-74799999D02*
X116000000Y-74000000D01*
X98000000Y-74000000D02*
X98860001Y-74860001D01*
X98860001Y-74860001D02*
X106139999Y-74860001D01*
X106139999Y-74860001D02*
X106200001Y-74799999D01*
X106200001Y-74799999D02*
X107000000Y-74000000D01*
X88970000Y-74000000D02*
X89830001Y-74860001D01*
X89830001Y-74860001D02*
X97139999Y-74860001D01*
X97139999Y-74860001D02*
X97200001Y-74799999D01*
X97200001Y-74799999D02*
X98000000Y-74000000D01*
X80000000Y-74000000D02*
X81000000Y-75000000D01*
X81000000Y-75000000D02*
X87970000Y-75000000D01*
X87970000Y-75000000D02*
X88170001Y-74799999D01*
X88170001Y-74799999D02*
X88970000Y-74000000D01*
X143000000Y-77000000D02*
X146840000Y-77000000D01*
X146840000Y-77000000D02*
X151000000Y-81160000D01*
X80000000Y-77000000D02*
X75660000Y-77000000D01*
X75660000Y-77000000D02*
X72000000Y-80660000D01*
X134000000Y-77000000D02*
X143000000Y-77000000D01*
X125000000Y-77000000D02*
X134000000Y-77000000D01*
X116000000Y-77000000D02*
X125000000Y-77000000D01*
X107000000Y-77000000D02*
X116000000Y-77000000D01*
X98000000Y-77000000D02*
X107000000Y-77000000D01*
X88970000Y-77000000D02*
X98000000Y-77000000D01*
X80000000Y-77000000D02*
X88970000Y-77000000D01*
M02*
