G04 #@! TF.GenerationSoftware,KiCad,Pcbnew,(2018-02-08 revision b04b1dc)-master*
G04 #@! TF.CreationDate,2018-02-10T20:33:43-08:00*
G04 #@! TF.ProjectId,CAN Bus Hub,43414E20427573204875622E6B696361,1*
G04 #@! TF.SameCoordinates,Original*
G04 #@! TF.FileFunction,Legend,Top*
G04 #@! TF.FilePolarity,Positive*
%FSLAX46Y46*%
G04 Gerber Fmt 4.6, Leading zero omitted, Abs format (unit mm)*
G04 Created by KiCad (PCBNEW (2018-02-08 revision b04b1dc)-master) date Saturday, February 10, 2018 at 08:33:43 PM*
%MOMM*%
%LPD*%
G01*
G04 APERTURE LIST*
%ADD10C,0.120000*%
%ADD11C,0.150000*%
G04 APERTURE END LIST*
D10*
X188310000Y-72870000D02*
X185690000Y-72870000D01*
X185690000Y-72870000D02*
X185690000Y-79290000D01*
X185690000Y-79290000D02*
X188310000Y-79290000D01*
X188310000Y-79290000D02*
X188310000Y-72870000D01*
X187000000Y-71980000D02*
X187000000Y-72870000D01*
X187000000Y-80180000D02*
X187000000Y-79290000D01*
X84300000Y-71900000D02*
X75700000Y-71900000D01*
X84300000Y-79650000D02*
X75700000Y-79650000D01*
X75700000Y-79650000D02*
X75700000Y-71900000D01*
X84300000Y-79650000D02*
X84300000Y-71900000D01*
X93270000Y-79650000D02*
X93270000Y-71900000D01*
X84670000Y-79650000D02*
X84670000Y-71900000D01*
X93270000Y-79650000D02*
X84670000Y-79650000D01*
X93270000Y-71900000D02*
X84670000Y-71900000D01*
X102300000Y-71900000D02*
X93700000Y-71900000D01*
X102300000Y-79650000D02*
X93700000Y-79650000D01*
X93700000Y-79650000D02*
X93700000Y-71900000D01*
X102300000Y-79650000D02*
X102300000Y-71900000D01*
X111300000Y-79650000D02*
X111300000Y-71900000D01*
X102700000Y-79650000D02*
X102700000Y-71900000D01*
X111300000Y-79650000D02*
X102700000Y-79650000D01*
X111300000Y-71900000D02*
X102700000Y-71900000D01*
X120300000Y-71900000D02*
X111700000Y-71900000D01*
X120300000Y-79650000D02*
X111700000Y-79650000D01*
X111700000Y-79650000D02*
X111700000Y-71900000D01*
X120300000Y-79650000D02*
X120300000Y-71900000D01*
X129300000Y-79650000D02*
X129300000Y-71900000D01*
X120700000Y-79650000D02*
X120700000Y-71900000D01*
X129300000Y-79650000D02*
X120700000Y-79650000D01*
X129300000Y-71900000D02*
X120700000Y-71900000D01*
X138300000Y-71900000D02*
X129700000Y-71900000D01*
X138300000Y-79650000D02*
X129700000Y-79650000D01*
X129700000Y-79650000D02*
X129700000Y-71900000D01*
X138300000Y-79650000D02*
X138300000Y-71900000D01*
X147300000Y-79650000D02*
X147300000Y-71900000D01*
X138700000Y-79650000D02*
X138700000Y-71900000D01*
X147300000Y-79650000D02*
X138700000Y-79650000D01*
X147300000Y-71900000D02*
X138700000Y-71900000D01*
X156300000Y-71900000D02*
X147700000Y-71900000D01*
X156300000Y-79650000D02*
X147700000Y-79650000D01*
X147700000Y-79650000D02*
X147700000Y-71900000D01*
X156300000Y-79650000D02*
X156300000Y-71900000D01*
X165300000Y-79650000D02*
X165300000Y-71900000D01*
X156700000Y-79650000D02*
X156700000Y-71900000D01*
X165300000Y-79650000D02*
X156700000Y-79650000D01*
X165300000Y-71900000D02*
X156700000Y-71900000D01*
X174300000Y-71900000D02*
X165700000Y-71900000D01*
X174300000Y-79650000D02*
X165700000Y-79650000D01*
X165700000Y-79650000D02*
X165700000Y-71900000D01*
X174300000Y-79650000D02*
X174300000Y-71900000D01*
X183300000Y-71900000D02*
X174700000Y-71900000D01*
X183300000Y-79650000D02*
X174700000Y-79650000D01*
X174700000Y-79650000D02*
X174700000Y-71900000D01*
X183300000Y-79650000D02*
X183300000Y-71900000D01*
X72000000Y-79680000D02*
X72000000Y-78790000D01*
X72000000Y-71480000D02*
X72000000Y-72370000D01*
X73310000Y-78790000D02*
X73310000Y-72370000D01*
X70690000Y-78790000D02*
X73310000Y-78790000D01*
X70690000Y-72370000D02*
X70690000Y-78790000D01*
X73310000Y-72370000D02*
X70690000Y-72370000D01*
D11*
X187452380Y-76746666D02*
X187452380Y-77318095D01*
X187452380Y-77032380D02*
X186452380Y-77032380D01*
X186595238Y-77127619D01*
X186690476Y-77222857D01*
X186738095Y-77318095D01*
X186547619Y-76365714D02*
X186500000Y-76318095D01*
X186452380Y-76222857D01*
X186452380Y-75984761D01*
X186500000Y-75889523D01*
X186547619Y-75841904D01*
X186642857Y-75794285D01*
X186738095Y-75794285D01*
X186880952Y-75841904D01*
X187452380Y-76413333D01*
X187452380Y-75794285D01*
X186452380Y-75175238D02*
X186452380Y-75080000D01*
X186500000Y-74984761D01*
X186547619Y-74937142D01*
X186642857Y-74889523D01*
X186833333Y-74841904D01*
X187071428Y-74841904D01*
X187261904Y-74889523D01*
X187357142Y-74937142D01*
X187404761Y-74984761D01*
X187452380Y-75080000D01*
X187452380Y-75175238D01*
X187404761Y-75270476D01*
X187357142Y-75318095D01*
X187261904Y-75365714D01*
X187071428Y-75413333D01*
X186833333Y-75413333D01*
X186642857Y-75365714D01*
X186547619Y-75318095D01*
X186500000Y-75270476D01*
X186452380Y-75175238D01*
X79666666Y-81452380D02*
X79666666Y-82166666D01*
X79619047Y-82309523D01*
X79523809Y-82404761D01*
X79380952Y-82452380D01*
X79285714Y-82452380D01*
X80666666Y-82452380D02*
X80095238Y-82452380D01*
X80380952Y-82452380D02*
X80380952Y-81452380D01*
X80285714Y-81595238D01*
X80190476Y-81690476D01*
X80095238Y-81738095D01*
X88636666Y-81452380D02*
X88636666Y-82166666D01*
X88589047Y-82309523D01*
X88493809Y-82404761D01*
X88350952Y-82452380D01*
X88255714Y-82452380D01*
X89065238Y-81547619D02*
X89112857Y-81500000D01*
X89208095Y-81452380D01*
X89446190Y-81452380D01*
X89541428Y-81500000D01*
X89589047Y-81547619D01*
X89636666Y-81642857D01*
X89636666Y-81738095D01*
X89589047Y-81880952D01*
X89017619Y-82452380D01*
X89636666Y-82452380D01*
X97666666Y-81452380D02*
X97666666Y-82166666D01*
X97619047Y-82309523D01*
X97523809Y-82404761D01*
X97380952Y-82452380D01*
X97285714Y-82452380D01*
X98047619Y-81452380D02*
X98666666Y-81452380D01*
X98333333Y-81833333D01*
X98476190Y-81833333D01*
X98571428Y-81880952D01*
X98619047Y-81928571D01*
X98666666Y-82023809D01*
X98666666Y-82261904D01*
X98619047Y-82357142D01*
X98571428Y-82404761D01*
X98476190Y-82452380D01*
X98190476Y-82452380D01*
X98095238Y-82404761D01*
X98047619Y-82357142D01*
X106666666Y-81452380D02*
X106666666Y-82166666D01*
X106619047Y-82309523D01*
X106523809Y-82404761D01*
X106380952Y-82452380D01*
X106285714Y-82452380D01*
X107571428Y-81785714D02*
X107571428Y-82452380D01*
X107333333Y-81404761D02*
X107095238Y-82119047D01*
X107714285Y-82119047D01*
X115666666Y-81452380D02*
X115666666Y-82166666D01*
X115619047Y-82309523D01*
X115523809Y-82404761D01*
X115380952Y-82452380D01*
X115285714Y-82452380D01*
X116619047Y-81452380D02*
X116142857Y-81452380D01*
X116095238Y-81928571D01*
X116142857Y-81880952D01*
X116238095Y-81833333D01*
X116476190Y-81833333D01*
X116571428Y-81880952D01*
X116619047Y-81928571D01*
X116666666Y-82023809D01*
X116666666Y-82261904D01*
X116619047Y-82357142D01*
X116571428Y-82404761D01*
X116476190Y-82452380D01*
X116238095Y-82452380D01*
X116142857Y-82404761D01*
X116095238Y-82357142D01*
X124666666Y-81452380D02*
X124666666Y-82166666D01*
X124619047Y-82309523D01*
X124523809Y-82404761D01*
X124380952Y-82452380D01*
X124285714Y-82452380D01*
X125571428Y-81452380D02*
X125380952Y-81452380D01*
X125285714Y-81500000D01*
X125238095Y-81547619D01*
X125142857Y-81690476D01*
X125095238Y-81880952D01*
X125095238Y-82261904D01*
X125142857Y-82357142D01*
X125190476Y-82404761D01*
X125285714Y-82452380D01*
X125476190Y-82452380D01*
X125571428Y-82404761D01*
X125619047Y-82357142D01*
X125666666Y-82261904D01*
X125666666Y-82023809D01*
X125619047Y-81928571D01*
X125571428Y-81880952D01*
X125476190Y-81833333D01*
X125285714Y-81833333D01*
X125190476Y-81880952D01*
X125142857Y-81928571D01*
X125095238Y-82023809D01*
X133666666Y-81452380D02*
X133666666Y-82166666D01*
X133619047Y-82309523D01*
X133523809Y-82404761D01*
X133380952Y-82452380D01*
X133285714Y-82452380D01*
X134047619Y-81452380D02*
X134714285Y-81452380D01*
X134285714Y-82452380D01*
X142666666Y-81452380D02*
X142666666Y-82166666D01*
X142619047Y-82309523D01*
X142523809Y-82404761D01*
X142380952Y-82452380D01*
X142285714Y-82452380D01*
X143285714Y-81880952D02*
X143190476Y-81833333D01*
X143142857Y-81785714D01*
X143095238Y-81690476D01*
X143095238Y-81642857D01*
X143142857Y-81547619D01*
X143190476Y-81500000D01*
X143285714Y-81452380D01*
X143476190Y-81452380D01*
X143571428Y-81500000D01*
X143619047Y-81547619D01*
X143666666Y-81642857D01*
X143666666Y-81690476D01*
X143619047Y-81785714D01*
X143571428Y-81833333D01*
X143476190Y-81880952D01*
X143285714Y-81880952D01*
X143190476Y-81928571D01*
X143142857Y-81976190D01*
X143095238Y-82071428D01*
X143095238Y-82261904D01*
X143142857Y-82357142D01*
X143190476Y-82404761D01*
X143285714Y-82452380D01*
X143476190Y-82452380D01*
X143571428Y-82404761D01*
X143619047Y-82357142D01*
X143666666Y-82261904D01*
X143666666Y-82071428D01*
X143619047Y-81976190D01*
X143571428Y-81928571D01*
X143476190Y-81880952D01*
X151666666Y-81452380D02*
X151666666Y-82166666D01*
X151619047Y-82309523D01*
X151523809Y-82404761D01*
X151380952Y-82452380D01*
X151285714Y-82452380D01*
X152190476Y-82452380D02*
X152380952Y-82452380D01*
X152476190Y-82404761D01*
X152523809Y-82357142D01*
X152619047Y-82214285D01*
X152666666Y-82023809D01*
X152666666Y-81642857D01*
X152619047Y-81547619D01*
X152571428Y-81500000D01*
X152476190Y-81452380D01*
X152285714Y-81452380D01*
X152190476Y-81500000D01*
X152142857Y-81547619D01*
X152095238Y-81642857D01*
X152095238Y-81880952D01*
X152142857Y-81976190D01*
X152190476Y-82023809D01*
X152285714Y-82071428D01*
X152476190Y-82071428D01*
X152571428Y-82023809D01*
X152619047Y-81976190D01*
X152666666Y-81880952D01*
X160190476Y-81452380D02*
X160190476Y-82166666D01*
X160142857Y-82309523D01*
X160047619Y-82404761D01*
X159904761Y-82452380D01*
X159809523Y-82452380D01*
X161190476Y-82452380D02*
X160619047Y-82452380D01*
X160904761Y-82452380D02*
X160904761Y-81452380D01*
X160809523Y-81595238D01*
X160714285Y-81690476D01*
X160619047Y-81738095D01*
X161809523Y-81452380D02*
X161904761Y-81452380D01*
X162000000Y-81500000D01*
X162047619Y-81547619D01*
X162095238Y-81642857D01*
X162142857Y-81833333D01*
X162142857Y-82071428D01*
X162095238Y-82261904D01*
X162047619Y-82357142D01*
X162000000Y-82404761D01*
X161904761Y-82452380D01*
X161809523Y-82452380D01*
X161714285Y-82404761D01*
X161666666Y-82357142D01*
X161619047Y-82261904D01*
X161571428Y-82071428D01*
X161571428Y-81833333D01*
X161619047Y-81642857D01*
X161666666Y-81547619D01*
X161714285Y-81500000D01*
X161809523Y-81452380D01*
X169190476Y-81452380D02*
X169190476Y-82166666D01*
X169142857Y-82309523D01*
X169047619Y-82404761D01*
X168904761Y-82452380D01*
X168809523Y-82452380D01*
X170190476Y-82452380D02*
X169619047Y-82452380D01*
X169904761Y-82452380D02*
X169904761Y-81452380D01*
X169809523Y-81595238D01*
X169714285Y-81690476D01*
X169619047Y-81738095D01*
X171142857Y-82452380D02*
X170571428Y-82452380D01*
X170857142Y-82452380D02*
X170857142Y-81452380D01*
X170761904Y-81595238D01*
X170666666Y-81690476D01*
X170571428Y-81738095D01*
X178190476Y-81452380D02*
X178190476Y-82166666D01*
X178142857Y-82309523D01*
X178047619Y-82404761D01*
X177904761Y-82452380D01*
X177809523Y-82452380D01*
X179190476Y-82452380D02*
X178619047Y-82452380D01*
X178904761Y-82452380D02*
X178904761Y-81452380D01*
X178809523Y-81595238D01*
X178714285Y-81690476D01*
X178619047Y-81738095D01*
X179571428Y-81547619D02*
X179619047Y-81500000D01*
X179714285Y-81452380D01*
X179952380Y-81452380D01*
X180047619Y-81500000D01*
X180095238Y-81547619D01*
X180142857Y-81642857D01*
X180142857Y-81738095D01*
X180095238Y-81880952D01*
X179523809Y-82452380D01*
X180142857Y-82452380D01*
X72452380Y-76246666D02*
X72452380Y-76818095D01*
X72452380Y-76532380D02*
X71452380Y-76532380D01*
X71595238Y-76627619D01*
X71690476Y-76722857D01*
X71738095Y-76818095D01*
X71547619Y-75865714D02*
X71500000Y-75818095D01*
X71452380Y-75722857D01*
X71452380Y-75484761D01*
X71500000Y-75389523D01*
X71547619Y-75341904D01*
X71642857Y-75294285D01*
X71738095Y-75294285D01*
X71880952Y-75341904D01*
X72452380Y-75913333D01*
X72452380Y-75294285D01*
X71452380Y-74675238D02*
X71452380Y-74580000D01*
X71500000Y-74484761D01*
X71547619Y-74437142D01*
X71642857Y-74389523D01*
X71833333Y-74341904D01*
X72071428Y-74341904D01*
X72261904Y-74389523D01*
X72357142Y-74437142D01*
X72404761Y-74484761D01*
X72452380Y-74580000D01*
X72452380Y-74675238D01*
X72404761Y-74770476D01*
X72357142Y-74818095D01*
X72261904Y-74865714D01*
X72071428Y-74913333D01*
X71833333Y-74913333D01*
X71642857Y-74865714D01*
X71547619Y-74818095D01*
X71500000Y-74770476D01*
X71452380Y-74675238D01*
M02*
