M48
;DRILL file {KiCad (2018-02-08 revision b04b1dc)-master} date Thursday, February 15, 2018 at 05:12:12 PM
;FORMAT={-:-/ absolute / inch / decimal}
FMAT,2
INCH,TZ
T1C0.0433
T2C0.0866
T3C0.1693
%
G90
G05
M72
T1
X4.0945Y-2.874
X4.3307Y-2.8764
X6.5748Y-2.874
X6.811Y-2.8764
X3.0315Y-2.874
X3.2677Y-2.8764
X7.9921Y-2.874
X8.2283Y-2.8764
X5.5118Y-2.874
X5.748Y-2.8764
X3.7402Y-2.874
X3.9764Y-2.8764
X6.2205Y-2.874
X6.4567Y-2.8764
X4.8031Y-2.874
X5.0394Y-2.8764
X7.6378Y-2.874
X7.874Y-2.8764
X5.1575Y-2.874
X5.3937Y-2.8764
X6.9291Y-2.874
X7.1654Y-2.8764
X3.3846Y-2.874
X3.6209Y-2.8764
X8.3465Y-2.874
X8.5827Y-2.8764
X5.8661Y-2.874
X6.1024Y-2.8764
X4.4488Y-2.874
X4.685Y-2.8764
X7.2835Y-2.874
X7.5197Y-2.8764
T2
X8.9764Y-2.7953
X2.6378Y-3.1496
X2.6378Y-2.7953
X8.9764Y-3.1496
T3
X9.252Y-2.9724
X2.3622Y-2.9724
T0
M30
