M48
;DRILL file {KiCad (2018-02-08 revision b04b1dc)-master} date Sunday, February 11, 2018 at 01:06:31 AM
;FORMAT={-:-/ absolute / inch / decimal}
FMAT,2
INCH,TZ
T1C0.0315
T2C0.0433
%
G90
G05
M72
T1
X8.7795Y-2.7953
X8.7795Y-3.1953
X2.8346Y-2.7756
X2.8346Y-3.1756
T2
X3.8583Y-2.9134
X3.8583Y-3.0315
X4.5669Y-2.9134
X4.5669Y-3.0315
X6.3386Y-2.9134
X6.3386Y-3.0315
X7.7559Y-2.9134
X7.7559Y-3.0315
X3.5028Y-2.9134
X3.5028Y-3.0315
X7.0472Y-2.9134
X7.0472Y-3.0315
X8.4646Y-2.9134
X8.4646Y-3.0315
X5.9843Y-2.9134
X5.9843Y-3.0315
X7.4016Y-2.9134
X7.4016Y-3.0315
X4.2126Y-2.9134
X4.2126Y-3.0315
X6.6929Y-2.9134
X6.6929Y-3.0315
X5.2756Y-2.9134
X5.2756Y-3.0315
X4.9213Y-2.9134
X4.9213Y-3.0315
X8.1102Y-2.9134
X8.1102Y-3.0315
X3.1496Y-2.9134
X3.1496Y-3.0315
X5.6299Y-2.9134
X5.6299Y-3.0315
T0
M30
